# xmcd CD database file
#
# Track frame offsets:
#	150
#	10788
#	20816
#	32718
#	47235
#	59487
#	72004
#	86866
#	97824
#	112827
#	125682
#	139427
#	152151
#	162800
#	174284
#	185074
#	197943
#	213734
#	228097
#	241885
#	254596
#	273975
#	287085
#	299570
#	310761
#	321868
#	333823
#	345745
#
# Disc length: 4744 seconds
#
# Revision: 1
# Processed by: cddbd v1.5.2PL0 Copyright (c) Steve Scherf et al.
# Submitted via: CDex 1.75
#
DISCID=a512861c
DTITLE=Django Reinhardt - The Complete Trios
DYEAR=2012
DGENRE=Jazz
TTITLE0=Tiger Rag
TTITLE1=After You've Gone
TTITLE2=Confessin'
TTITLE3=Stardust
TTITLE4=St. Louis Blues
TTITLE5=Bouncin' Around (Rhythm in G minor)
TTITLE6=I Can't Believe That You're in Love with Me (I)
TTITLE7=Interpretation Swing du 1er Mouvement du Concerto en Re mineur de J.S. Bach
TTITLE8=Improvisation Swing du 1er Mouvement du Concerto en Re mineur de J.S. Bach
TTITLE9=Christmas Swin
TTITLE10=Blues
TTITLE11=Dream Ship
TTITLE12=I Can't Believe That You're in Love with Me (II)
TTITLE13=I'll See You in My Dreams
TTITLE14=Daphne
TTITLE15=Points Roses
TTITLE16=Un Instant D'Infini
TTITLE17=Mon Coeur Reste Pres de Toi
TTITLE18=Blues Clair
TTITLE19=Honeysuckle Rose
TTITLE20=Don't Be That Way
TTITLE21=You Took Advantage of Me
TTITLE22=Fiddle Blues
TTITLE23=Sweet Sue, Just You
TTITLE24=Rosetta
TTITLE25=Sugar
TTITLE26=A Pretty Girl is Like a Melody
TTITLE27=Margie
EXTD=YEAR: 2012
EXTT0=
EXTT1=
EXTT2=
EXTT3=
EXTT4=
EXTT5=
EXTT6=
EXTT7=
EXTT8=
EXTT9=
EXTT10=
EXTT11=
EXTT12=
EXTT13=
EXTT14=
EXTT15=
EXTT16=
EXTT17=
EXTT18=
EXTT19=
EXTT20=
EXTT21=
EXTT22=
EXTT23=
EXTT24=
EXTT25=
EXTT26=
EXTT27=
PLAYORDER=
